# Blender v2.78 (sub 0) OBJ File: ''
# www.blender.org
mtllib piramid.mtl
o piramid
v -1.000000 -0.000000 1.000000
v -1.000000 -0.000000 -1.000000
v 1.000000 0.000000 -1.000000
v 1.000000 0.000000 1.000000
v -0.000000 1.200000 0.000000
vn -0.0000 0.5773 0.8165
vn 0.8165 0.5773 0.0000
vn -0.8165 0.5773 -0.0000
vn 0.0000 -1.0000 0.0000
vn 0.0000 0.5773 -0.8165
usemtl red
s 1
f 1//1 4//1 5//1
usemtl green
f 4//2 3//2 5//2
usemtl yellow
f 2//3 1//3 5//3
usemtl cyan
f 1//4 2//4 3//4 4//4
usemtl blue
f 3//5 2//5 5//5
